# xmcd
#
# Track frame offsets:
#	150
#	16491
#	35143
#	46416
#	60878
#	77964
#	95774
#	111284
#	125380
#	138980
#	152278
#	175409
#
# Disc length: 2598 seconds
#
# Revision: 2
# Processed by: cddbd v1.5.2PL0 Copyright (c) Steve Scherf et al.
# Submitted via: audiograbber 1.83.01
#
DISCID=9b0a240c
DTITLE=Wolverines - Wolverines and Roses
DYEAR=2002
DGENRE=Country
TTITLE0=I Had A Dream
TTITLE1=Late At Night
TTITLE2=You're Never Too Old To Sing A Country Song
TTITLE3=The End Of The Line
TTITLE4=Talk To The Sea
TTITLE5=Back To The Wall
TTITLE6=Individuality
TTITLE7=We're Not So Bad
TTITLE8=Bad Bulls 'N Broncos
TTITLE9=Whisky
TTITLE10=Cryin' In The Night
TTITLE11=65 Roses
EXTD=
EXTT0=
EXTT1=
EXTT2=
EXTT3=
EXTT4=
EXTT5=
EXTT6=
EXTT7=
EXTT8=
EXTT9=
EXTT10=
EXTT11=
PLAYORDER=
